<svg id="Layer_1" data-name="Layer 1" xmlns="http://www.w3.org/2000/svg" viewBox="0 0 188.2 53.86"><defs><style>.cls-1{fill:#444;}.cls-2{fill:#105ab2;}.cls-3{fill:#afaeae;}</style></defs><title>logo</title><path class="cls-1" d="M24.37,43.12c-.43-2.16-1.1-5.65-1.47-7.75-.59-3.31-1.1-6.53-1.55-9.63a2.13,2.13,0,0,0-.54-1.28l-1.12-1.1.08.1c-.59-.7-1.65-.56-2.74.51-2.41,2.34-4.72,4.73-6.9,7.15C8.81,32.6,6.74,35,5.55,36.48q-2.74,3.39-5,6.64A2.7,2.7,0,0,0,0,45.06v.12a1.73,1.73,0,0,0,.31.69l-.06-.06L1.08,47a2,2,0,0,0,.78.65c2.06,1,4.31,1.93,6.74,2.91,1.6.65,4.34,1.7,6.1,2.34C17.61,54,20.7,55,23.81,56c2,.65,3.27-.53,2.78-2.63C25.81,50,25.07,46.57,24.37,43.12ZM16.06,30.41Zm-.21,0Zm-.23.09Zm-.24.16ZM4.81,42.91a1.77,1.77,0,0,1,.33-.6A1.77,1.77,0,0,0,4.81,42.91Zm-.06.28v0ZM20,23.84a2.68,2.68,0,0,1,.21.77,2.94,2.94,0,0,0-.17-.78Zm0,0a2.2,2.2,0,0,0-.21-.32,2.17,2.17,0,0,1,.24.29Zm-.46,23c.26,1.22-.43,1.92-1.53,1.56-1.71-.56-3.38-1.12-5-1.7-1-.34-2.56-.9-3.49-1.24l-3.66-1.4a1.86,1.86,0,0,1,.3-.53c1.06-1.31,2.17-2.65,3.33-4,.74-.86,2-2.27,2.78-3.14q1.93-2.13,4-4.24a1.91,1.91,0,0,1,.68-.48c.23,1.61.48,3.25.74,4.9.2,1.2.54,3.17.77,4.38.32,2,.71,4,1.11,5.87Zm-3.27-16.4ZM.49,46l.17.17Z" transform="translate(-0.01 -2.36)"/><path class="cls-2" d="M57,24.91c-.86-3.05-1.77-6-2.7-8.73-.57-1.67-1.5-4.24-2.09-5.74-.88-2.26-1.78-4.34-2.68-6.23a1.92,1.92,0,0,0-.67-.77l-1.2-.77.09.07a2.45,2.45,0,0,0-2.52-.06q-3.1,1.65-6.44,3.78c-1.45.94-3.88,2.59-5.39,3.69q-3.5,2.55-7,5.48l-.54.38a2.32,2.32,0,0,0-1,1.9h0a1.12,1.12,0,0,0,.41.7h0l1.18,1a2.57,2.57,0,0,0,1.18.52c3.13.64,6.34,1.37,9.59,2.18,2.07.52,5.46,1.41,7.53,2,3.31.94,6.57,2,9.77,3C56.35,28,57.5,26.91,57,24.91ZM45.49,6.46h0ZM33,14.73l-.28.26A3.45,3.45,0,0,1,33,14.73Zm-.56.74a.23.23,0,0,1,0-.14C32.49,15.28,32.41,15.43,32.39,15.47Zm.1-.23a1,1,0,0,1,.15-.2A1,1,0,0,0,32.49,15.24Zm-.12.39Zm3.22,5C34,20.3,32.46,20,30.92,19.61,32.46,19.91,34,20.3,35.59,20.68Zm17.06-6.4-.41-1.15c.25.69.49,1.36.68,1.93A7.91,7.91,0,0,1,52.65,14.28ZM52.19,13v0ZM48,3.05l-.19-.14Zm-.51,7.53c.31.87.8,2.35,1.1,3.28q.75,2.31,1.48,4.77c.32,1-.38,1.63-1.54,1.28-1.85-.55-3.72-1.08-5.6-1.57-1.17-.31-3.08-.8-4.24-1.07-1.64-.39-3.26-.76-4.87-1.1a2.16,2.16,0,0,1,.39-.41c1.46-1.16,2.9-2.26,4.33-3.32.88-.65,2.28-1.66,3.14-2.26,1.33-.92,2.63-1.8,3.89-2.62a1.72,1.72,0,0,1,.73-.25c.33.87.66,1.76,1,2.68A5.8,5.8,0,0,0,47.49,10.58ZM44.32,6.67a2.64,2.64,0,0,1,.38-.18A2.64,2.64,0,0,0,44.32,6.67Zm.49-.19a1,1,0,0,1,.35-.06A1,1,0,0,0,44.81,6.48Zm.78,0a.66.66,0,0,1,.24.11.65.65,0,0,0-.29-.11Zm-15.16,13,.38.09c-1.56-.34-3.1-.65-4.62-1,1.34.34,2.76.62,4.19.92Zm-5-.74h0Zm.26.13Z" transform="translate(-0.01 -2.36)"/><path class="cls-3" d="M55.51,31.2a1.83,1.83,0,0,0-.49-.85L53.66,29l.06.08a3.12,3.12,0,0,0-1.35-.81q-4.87-1.55-9.89-2.94c-2.09-.57-5.5-1.46-7.56-2l-1.11-.24c-2.84-.68-5.65-1.31-8.37-1.85a2.25,2.25,0,0,0-3,2.68q.68,4.59,1.54,9.5c.37,2.09,1,5.57,1.44,7.72.69,3.46,1.42,6.93,2.2,10.36l.06.24a2.82,2.82,0,0,0,.79,1.34l-.1-.08,1.39,1.33c.78.76,2,.68,3.07-.35q4-3.67,8-7.5L47,40.71c2.62-2.51,5.17-5,7.62-7.32A2.33,2.33,0,0,0,55.51,31.2ZM54,29.45a1.88,1.88,0,0,0-.16-.23A1.88,1.88,0,0,1,54,29.45ZM30.93,44.37Zm1.25.68c-.38-1.79-.76-3.57-1.12-5.34-.27-1.26-.68-3.3-.93-4.54L29,29.36c-.22-1.17.56-1.88,1.73-1.58,1.91.47,3.84,1,5.77,1.49L41,30.49q2.64.75,5.26,1.53a1.94,1.94,0,0,1-.44.58l-2.73,2.53-1.86,1.78c-1,.9-2.56,2.38-3.53,3.3L33,44.6A1.84,1.84,0,0,1,32.18,45.05ZM45.42,30.83a2.5,2.5,0,0,1,.38.15A2.5,2.5,0,0,0,45.42,30.83Zm.49.21a1.46,1.46,0,0,1,.24.17A1.46,1.46,0,0,0,45.91,31ZM35,27.52l.48.12Zm.59.15h0Zm8.49,12.52c-1.56,1.47-3.42,3.24-4.7,4.43Zm-5.6-11.74.94.25ZM28.9,53.27a2.14,2.14,0,0,1-.32-.2A2.14,2.14,0,0,0,28.9,53.27Zm.57.16h0Zm-.31-.06-.15,0Zm.64.07h0Zm1.3-.54h0Zm-.45.28Zm-.4.16h0Z" transform="translate(-0.01 -2.36)"/><path class="cls-1" d="M85.31,16.29v3.36H78.12V42H73.93V19.65H66.78V16.29Z" transform="translate(-0.01 -2.36)"/><path class="cls-1" d="M102.85,22.93a8.88,8.88,0,0,1,3.64,3.57A10.94,10.94,0,0,1,107.8,32a11,11,0,0,1-1.31,5.51,8.94,8.94,0,0,1-3.64,3.57,11,11,0,0,1-5.26,1.24,10.86,10.86,0,0,1-5.23-1.24,9,9,0,0,1-3.64-3.59A10.94,10.94,0,0,1,87.38,32a10.84,10.84,0,0,1,1.34-5.47,9,9,0,0,1,3.64-3.57,10.86,10.86,0,0,1,5.23-1.24A11,11,0,0,1,102.85,22.93ZM94.64,26a5.34,5.34,0,0,0-2.17,2.24,7.64,7.64,0,0,0-.82,3.7,7.64,7.64,0,0,0,.82,3.72,5.34,5.34,0,0,0,2.17,2.22,6.35,6.35,0,0,0,5.91,0,5.34,5.34,0,0,0,2.17-2.22,7.75,7.75,0,0,0,.82-3.72,7.75,7.75,0,0,0-.82-3.7A5.34,5.34,0,0,0,100.55,26a6.35,6.35,0,0,0-5.91,0Z" transform="translate(-0.01 -2.36)"/><path class="cls-3" d="M132.33,35.93a11,11,0,0,1-4.63,4.5A15.43,15.43,0,0,1,120.42,42h-8.6V16.29h8.6a15.55,15.55,0,0,1,7.28,1.59,10.84,10.84,0,0,1,4.63,4.46,13.93,13.93,0,0,1,1.58,6.79A14.05,14.05,0,0,1,132.33,35.93Zm-5.13-.06a8.92,8.92,0,0,0,2.48-6.74,8.93,8.93,0,0,0-2.48-6.75c-1.65-1.6-4-2.41-7.11-2.41H116V38.28h4.12Q124.73,38.28,127.2,35.87Z" transform="translate(-0.01 -2.36)"/><path class="cls-3" d="M152.55,22.93a8.88,8.88,0,0,1,3.64,3.57A10.94,10.94,0,0,1,157.51,32a11,11,0,0,1-1.32,5.51,8.94,8.94,0,0,1-3.64,3.57,11,11,0,0,1-5.26,1.24,10.89,10.89,0,0,1-5.23-1.24,9,9,0,0,1-3.64-3.59A10.94,10.94,0,0,1,137.08,32a10.84,10.84,0,0,1,1.34-5.47,9,9,0,0,1,3.64-3.57,10.89,10.89,0,0,1,5.23-1.24A11,11,0,0,1,152.55,22.93ZM144.34,26a5.34,5.34,0,0,0-2.17,2.24,7.64,7.64,0,0,0-.82,3.7,7.64,7.64,0,0,0,.82,3.72,5.34,5.34,0,0,0,2.17,2.22,6.35,6.35,0,0,0,5.91,0,5.34,5.34,0,0,0,2.17-2.22,7.64,7.64,0,0,0,.82-3.72,7.64,7.64,0,0,0-.82-3.7A5.34,5.34,0,0,0,150.25,26a6.35,6.35,0,0,0-5.91,0Z" transform="translate(-0.01 -2.36)"/><path class="cls-2" d="M188.21,16.69V42H184V23l-7.33,19H173l-7.37-19V42h-4.15V16.69h5l8.39,20.24,8.24-20.24Z" transform="translate(-0.01 -2.36)"/></svg>